{
    "asset" : {
        "generator" : "Khronos glTF Blender I/O v1.8.19",
        "version" : "2.0"
    },
    "scene" : 0,
    "scenes" : [
        {
            "name" : "Scene",
            "nodes" : [
                0
            ]
        }
    ],
    "nodes" : [
        {
            "mesh" : 0,
            "name" : "Text",
            "scale" : [
                3.3899474143981934,
                3.3899474143981934,
                3.3899474143981934
            ],
            "translation" : [
                -9.639025688171387,
                -1,
                0
            ]
        }
    ],
    "meshes" : [
        {
            "name" : "Text.001",
            "primitives" : [
                {
                    "attributes" : {
                        "POSITION" : 0,
                        "NORMAL" : 1,
                        "TEXCOORD_0" : 2
                    },
                    "indices" : 3
                }
            ]
        }
    ],
    "accessors" : [
        {
            "bufferView" : 0,
            "componentType" : 5126,
            "count" : 9499,
            "max" : [
                5.245758056640625,
                0.10553428530693054,
                0.04891157150268555
            ],
            "min" : [
                1.3430612087249756,
                0.025401819497346878,
                -0.5147364735603333
            ],
            "type" : "VEC3"
        },
        {
            "bufferView" : 1,
            "componentType" : 5126,
            "count" : 9499,
            "type" : "VEC3"
        },
        {
            "bufferView" : 2,
            "componentType" : 5126,
            "count" : 9499,
            "type" : "VEC2"
        },
        {
            "bufferView" : 3,
            "componentType" : 5123,
            "count" : 13488,
            "type" : "SCALAR"
        }
    ],
    "bufferViews" : [
        {
            "buffer" : 0,
            "byteLength" : 113988,
            "byteOffset" : 0
        },
        {
            "buffer" : 0,
            "byteLength" : 113988,
            "byteOffset" : 113988
        },
        {
            "buffer" : 0,
            "byteLength" : 75992,
            "byteOffset" : 227976
        },
        {
            "buffer" : 0,
            "byteLength" : 26976,
            "byteOffset" : 303968
        }
    ],
    "buffers" : [
        {
            "byteLength" : 330944,
            "uri" : "data:application/octet-stream;base64,"
        }
    ]
}
