{
    "asset" : {
        "generator" : "Khronos glTF Blender I/O v1.8.19",
        "version" : "2.0"
    },
    "scene" : 0,
    "scenes" : [
        {
            "name" : "Scene",
            "nodes" : [
                0
            ]
        }
    ],
    "nodes" : [
        {
            "mesh" : 0,
            "name" : "Text",
            "scale" : [
                4.955270290374756,
                4.955270290374756,
                4.955270290374756
            ],
            "translation" : [
                -19.49551773071289,
                0,
                0
            ]
        }
    ],
    "meshes" : [
        {
            "name" : "Text",
            "primitives" : [
                {
                    "attributes" : {
                        "POSITION" : 0,
                        "NORMAL" : 1,
                        "TEXCOORD_0" : 2
                    },
                    "indices" : 3
                }
            ]
        }
    ],
    "accessors" : [
        {
            "bufferView" : 0,
            "componentType" : 5126,
            "count" : 12542,
            "max" : [
                8.573118209838867,
                1.4361237287521362,
                0.009000041522085667
            ],
            "min" : [
                0.049000002443790436,
                0,
                -0.6910000443458557
            ],
            "type" : "VEC3"
        },
        {
            "bufferView" : 1,
            "componentType" : 5126,
            "count" : 12542,
            "type" : "VEC3"
        },
        {
            "bufferView" : 2,
            "componentType" : 5126,
            "count" : 12542,
            "type" : "VEC2"
        },
        {
            "bufferView" : 3,
            "componentType" : 5123,
            "count" : 23202,
            "type" : "SCALAR"
        }
    ],
    "bufferViews" : [
        {
            "buffer" : 0,
            "byteLength" : 150504,
            "byteOffset" : 0
        },
        {
            "buffer" : 0,
            "byteLength" : 150504,
            "byteOffset" : 150504
        },
        {
            "buffer" : 0,
            "byteLength" : 100336,
            "byteOffset" : 301008
        },
        {
            "buffer" : 0,
            "byteLength" : 46404,
            "byteOffset" : 401344
        }
    ],
    "buffers" : [
        {
            "byteLength" : 447748,
            "uri" : "data:application/octet-stream;base64,"
        }
    ]
}
